<?xml version="1.0" encoding="utf-8"?>
<!-- Generator: Adobe Illustrator 16.0.0, SVG Export Plug-In . SVG Version: 6.00 Build 0)  -->
<!DOCTYPE svg PUBLIC "-//W3C//DTD SVG 1.1//EN" "http://www.w3.org/Graphics/SVG/1.1/DTD/svg11.dtd">
<svg version="1.1" id="Calque_1" xmlns="http://www.w3.org/2000/svg" xmlns:xlink="http://www.w3.org/1999/xlink" x="0px" y="0px"
	 width="40px" height="40.008px" viewBox="0 0 40 40.008" enable-background="new 0 0 40 40.008" xml:space="preserve">
<g>
	<path stroke="#FFFFFF" stroke-miterlimit="10" d="M25.107,26.588c-4.98-6.341,2.386-9.03,2.868-15.287
		c-4.634-2.647-12.042-1.872-16.243,0.955C8.111,14.692,8.585,17.096,6,19.9c-6.572-1.782-3.411-9.05-1.911-11.465
		c1.448-2.333,10.381-6.607,16.24-6.687c5.545-0.078,13.741,2.354,15.289,4.775C40.559,14.268,33.777,25.648,25.107,26.588"/>
	<path stroke="#FFFFFF" stroke-miterlimit="10" d="M16.51,20.854c5.389,1.781,5.63,13.254,4.777,18.154
		C15.032,37.758,12.742,26.251,16.51,20.854"/>
</g>
</svg>
