<?xml version="1.0" encoding="utf-8"?>
<!-- Generator: Adobe Illustrator 16.0.0, SVG Export Plug-In . SVG Version: 6.00 Build 0)  -->
<!DOCTYPE svg PUBLIC "-//W3C//DTD SVG 1.1//EN" "http://www.w3.org/Graphics/SVG/1.1/DTD/svg11.dtd">
<svg version="1.1" id="Calque_1" xmlns="http://www.w3.org/2000/svg" xmlns:xlink="http://www.w3.org/1999/xlink" x="0px" y="0px"
	 width="263px" height="72.667px" viewBox="0 0 263 72.667" enable-background="new 0 0 263 72.667" xml:space="preserve">
<g>
	<path fill="#FFFFFF" stroke="#FFFFFF" stroke-miterlimit="10" d="M187.62,10.829c0.851,0.194,0.531,1.561,1.568,1.569
		c0.369,8.796,3.53,27.02-2.354,32.166c-4.604-1.156-2.801-7.61-3.138-11.769C183.089,25.282,184.625,16.585,187.62,10.829"/>
	<path fill="#FFFFFF" stroke="#FFFFFF" stroke-miterlimit="10" d="M169.576,35.149c-1.858,3.024,0.938,8.646-1.568,9.414
		c-4.876-1.401-1.219-11.333-2.354-16.475c2.763-1.161,5.409-2.435,7.846-3.922c-0.732-2.581-2.542-4.447-3.923-4.707
		c-4.815-0.909-8.309,8.658-13.336,6.276c-2.15-15.672,26.569-15.42,22.751,1.568C177.965,31.854,173.839,32.425,169.576,35.149"/>
	<path fill="#FFFFFF" stroke="#FFFFFF" stroke-miterlimit="10" d="M116.229,39.856c2.458,0.362,3.503-0.682,3.139-3.138
		c-1.08,0.034-1.723-0.37-2.354-0.784C116.357,36.844,115.979,38.038,116.229,39.856 M121.722,16.321
		c1.267-0.221,1.35,0.742,2.354,0.784c1.252,3.719,0.776,9.951,0.783,14.906c0.005,3.094-2.764,7.688,1.569,7.845
		c1.907-1.231-0.325-6.602,2.354-7.06c4.108,0.032,2.27,4.802,3.137,6.276c5.876,1.432,2.176-6.716,5.491-7.845
		c3.209-0.291,1.557,3.292,2.354,4.707c1.751,3.101,3.932,3.609,7.845,4.708c-2.204,4.729-5.366,3.732-10.983,3.922
		c-1.615,0.053-3.751,1.575-4.707,1.569c-1.903-0.014-2.923-1.283-4.707-1.569c-1.359-0.218-2.254,0.868-3.922,0.785
		c-1.579-0.078-3.046-1.622-3.923-1.569c-2.576,0.149-4.313,2.757-7.06,0.784c-1.615-2.711-2.145-5.366-1.569-7.845
		c1.088-4.684,7.13-5.064,10.199-7.06C120.284,24.877,117.749,19.402,121.722,16.321"/>
	<path fill="#FFFFFF" stroke="#FFFFFF" stroke-miterlimit="10" d="M26.797,37.502c-4.089-5.207,1.959-7.415,2.355-12.552
		c-3.805-2.174-9.887-1.537-13.337,0.784c-2.973,2-2.583,3.974-4.707,6.276c-5.396-1.463-2.801-7.431-1.569-9.414
		c1.189-1.916,8.524-5.425,13.335-5.491c4.553-0.064,11.283,1.933,12.554,3.921C39.484,27.387,33.916,36.73,26.797,37.502"/>
	<path fill="#FFFFFF" stroke="#FFFFFF" stroke-miterlimit="10" d="M199.386,40.64c3.531,1.735,6.595-1.065,7.061-4.707
		c-1.118-0.188-1.321-1.292-2.354-1.569C202.51,36.442,199.157,36.75,199.386,40.64 M200.171,28.088
		c3.927,0.672,4.333,1.825,8.629,0.784c12.07,13.203-12.832,24.375-15.691,12.553C192.19,37.614,198.35,30.292,200.171,28.088"/>
	<path fill="#FFFFFF" stroke="#FFFFFF" stroke-miterlimit="10" d="M86.419,38.286c2.247,0.156,4.282,0.1,3.922-2.352
		C88.726,34.306,86.364,35.937,86.419,38.286 M90.341,45.348c-3.719,2.31-7.953-0.677-10.198-2.354
		c-3.436-12.931,15.315-18.897,13.336-7.06c-0.44,2.631-1.562,2.743-3.923,4.707C89.383,42.98,92.454,43.306,90.341,45.348"/>
	<path fill="#FFFFFF" stroke="#FFFFFF" stroke-miterlimit="10" d="M231.551,28.873c-1.322,6.812,1.729,9.253,2.354,14.121
		c-0.994,2.517-3.835,0.41-6.278,0.785c-4.477,0.686-9.256,2.601-10.982-3.923c-0.521-1.965-1.48-8.133,2.354-9.414
		c4.927-0.742,0.093,8.276,3.923,8.63C229.507,39.381,222.862,26.459,231.551,28.873"/>
	<path fill="#FFFFFF" stroke="#FFFFFF" stroke-miterlimit="10" d="M254.301,28.873c1.371,4.682,0.785,12.358,0.785,19.612
		c0,6.241,2.058,15.607-3.924,16.475c-2.139-5.445,0.535-15.701-1.567-21.181c-6.004,2.576-16.552-8.531-8.631-12.552
		c3.522,0.661,2.412,5.957,5.492,7.06C252.158,37.324,246.381,28.424,254.301,28.873"/>
	<path fill="#FFFFFF" stroke="#FFFFFF" stroke-miterlimit="10" d="M52.686,32.011c1.2,1.427,2.766,4.849,1.569,6.276
		c-2.397,0.567-2.859-0.802-4.708-0.784c-1.604,3.945,0.665,4.609,3.923,5.491c0.24,5.271-3.709,4.739-7.846,3.923
		C42.214,41.396,44.591,30.943,52.686,32.011"/>
	<path fill="#FFFFFF" stroke="#FFFFFF" stroke-miterlimit="10" d="M19.738,32.795c4.425,1.462,4.623,10.883,3.922,14.906
		C18.524,46.674,16.644,37.226,19.738,32.795"/>
	<path fill="#FFFFFF" stroke="#FFFFFF" stroke-miterlimit="10" d="M36.997,32.795c5.861,1.762,1.216,10.728,3.138,13.337
		C34.635,45.446,34.704,36.971,36.997,32.795"/>
	<path fill="#FFFFFF" stroke="#FFFFFF" stroke-miterlimit="10" d="M77.791,37.502c-3.981,0.466-5.518,3.373-4.708,8.631
		c-6.399,0.514-5.241-9.881-3.138-13.337C74.296,32.627,76.851,34.257,77.791,37.502"/>
	<path fill="#FFFFFF" stroke="#FFFFFF" stroke-miterlimit="10" d="M57.392,33.58c5.335-0.366,6.938,3,8.631,6.276
		c-1.682,2.015-4.384-0.657-5.492,0.785c-0.385,2.476,1.414,2.77,0.785,5.491c-2.398,0.567-2.859-0.802-4.708-0.784
		C56.969,41.524,55.788,36.158,57.392,33.58"/>
</g>
</svg>
